<svg xmlns="http://www.w3.org/2000/svg" width="25" height="25" viewBox="0 0 25 25">
  <g id="Places" transform="translate(0 0)">
    <rect id="Rectangle_305" data-name="Rectangle 305" width="25" height="25" transform="translate(0 0)" fill="none"/>
    <path id="Path_114" data-name="Path 114" d="M10.266,14.825a4.354,4.354,0,0,0,4.361-4.361,4.488,4.488,0,0,0-4.361-4.517,4.354,4.354,0,0,0-4.361,4.361A4.6,4.6,0,0,0,10.266,14.825ZM2.946,2.987A10.353,10.353,0,0,1,17.587,17.629L10.266,24.95,2.946,17.629A10.636,10.636,0,0,1,2.946,2.987Z" transform="translate(0.975 0.05)" fill="#2699fb" fill-rule="evenodd"/>
  </g>
</svg>
